# xmcd CD database file
#
# Track frame offsets:
#	182
#	13010
#	26932
#	40680
#	50752
#	62237
#	74500
#	105682
#	121787
#	140732
#	153640
#	168235
#	186860
#	211520
#
# Disc length: 2983 seconds
#
# Revision: 2
# Processed by: cddbd v1.5PL3 Copyright (c) Steve Scherf et al.
# Submitted via: CDex 1.51
#
DISCID=c90ba50e
DTITLE=Various Artist - Ultimate Blues - Disk 1 of 2
DYEAR=1990
DGENRE=Blues
TTITLE0=Muddy Waters - Hoochie Coochie Man
TTITLE1=Howlin' Wolf - Smokestack Lightning
TTITLE2=Elmore James - Dust my Broom
TTITLE3=John Lee Hooker - Dimples
TTITLE4=Sonny Boy Williamson - Don't Start Me Talking
TTITLE5=Little Walter - Juke
TTITLE6=B.B. King - Outside Help
TTITLE7=John Mayall's Blues Breakers - All Your Love
TTITLE8=Alexis Korner and Colin Hodgkinson - I Got my Mojo Working
TTITLE9=Fleetwood Mac - Black Magic Woman
TTITLE10=Chicken Shack - I'd Rather go Blind
TTITLE11=Savoy Brown - Train to Nowhere
TTITLE12=Jimi Hendrix - Catfish Blues
TTITLE13=Johnny Winter - Good Morning Little School Girl
EXTD=YEAR: 1990
EXTT0=
EXTT1=
EXTT2=
EXTT3=
EXTT4=
EXTT5=
EXTT6=
EXTT7=
EXTT8=
EXTT9=
EXTT10=
EXTT11=
EXTT12=
EXTT13=
PLAYORDER=
